<?xml version="1.0" encoding="UTF-8"?>
<svg xmlns="http://www.w3.org/2000/svg" width="1000" height="1000" viewBox="0 0 1000 1000">
  <title>Generated SVG 10KB</title>
  <desc>Complex SVG with many shapes for compression testing</desc>
<circle cx="565" cy="637" r="10" fill="rgb(212,49,18)" opacity="0.95"/><line x1="991" y1="671" x2="591" y2="361" stroke="rgb(8,82,47)" stroke-width="2"/><circle cx="532" cy="935" r="17" fill="rgb(171,4,46)" opacity="0.32"/><line x1="642" y1="925" x2="181" y2="536" stroke="rgb(74,110,102)" stroke-width="2"/><circle cx="397" cy="532" r="23" fill="rgb(239,83,13)" opacity="0.79"/><polygon points="379,783 519,752 766,607 344,578 781,118 148,272 411,917" fill="rgb(19,86,87)" opacity="0.57"/><path d="M 669 944 L 796 673 L 912 798 L 574 739 L 209 217 L 475 649" stroke="rgb(60,255,205)" fill="none" stroke-width="2"/><polygon points="62,570 677,159 784,957 599,988 980,173 93,546 934,157 63,524" fill="rgb(230,4,139)" opacity="0.49"/><rect x="669" y="688" width="40" height="51" fill="rgb(98,223,187)" opacity="0.62"/><path d="M 953 649 L 563 134 L 308 526" stroke="rgb(187,20,185)" fill="none" stroke-width="1"/><line x1="712" y1="34" x2="341" y2="403" stroke="rgb(81,111,32)" stroke-width="3"/><circle cx="11" cy="652" r="42" fill="rgb(162,94,178)" opacity="0.35"/><line x1="792" y1="568" x2="660" y2="335" stroke="rgb(148,183,8)" stroke-width="4"/><rect x="646" y="211" width="47" height="30" fill="rgb(88,242,253)" opacity="0.53"/><line x1="479" y1="506" x2="611" y2="160" stroke="rgb(70,236,228)" stroke-width="5"/><path d="M 661 703 L 480 522 L 238 80" stroke="rgb(89,3,164)" fill="none" stroke-width="2"/><polygon points="30,135 947,36 498,718 552,49 165,192 681,912" fill="rgb(41,60,25)" opacity="0.82"/><line x1="590" y1="734" x2="389" y2="77" stroke="rgb(27,209,147)" stroke-width="4"/><circle cx="23" cy="368" r="45" fill="rgb(151,56,53)" opacity="0.46"/><path d="M 743 730 L 704 420 L 255 278 L 677 345 L 268 72" stroke="rgb(220,217,171)" fill="none" stroke-width="2"/><polygon points="439,231 200,520 880,259" fill="rgb(152,113,108)" opacity="0.86"/><rect x="594" y="297" width="11" height="42" fill="rgb(91,140,97)" opacity="0.54"/><rect x="60" y="717" width="37" height="63" fill="rgb(178,233,1)" opacity="0.59"/><circle cx="435" cy="12" r="38" fill="rgb(211,209,26)" opacity="0.64"/><circle cx="864" cy="498" r="42" fill="rgb(248,187,50)" opacity="0.93"/><circle cx="284" cy="152" r="36" fill="rgb(68,121,147)" opacity="0.71"/><path d="M 124 840 L 512 563 L 55 884" stroke="rgb(108,35,90)" fill="none" stroke-width="1"/><rect x="443" y="361" width="18" height="59" fill="rgb(121,56,219)" opacity="0.93"/><rect x="283" y="585" width="95" height="77" fill="rgb(15,99,54)" opacity="0.47"/><line x1="645" y1="250" x2="833" y2="621" stroke="rgb(153,155,248)" stroke-width="5"/><rect x="271" y="777" width="69" height="87" fill="rgb(160,81,108)" opacity="0.81"/><path d="M 847 782 L 881 641 L 209 430 L 208 131 L 169 724" stroke="rgb(220,163,15)" fill="none" stroke-width="1"/><path d="M 167 976 L 100 926 L 859 624 L 69 816 L 601 463" stroke="rgb(154,53,196)" fill="none" stroke-width="3"/><path d="M 717 71 L 943 926 L 553 106" stroke="rgb(67,145,59)" fill="none" stroke-width="1"/><line x1="434" y1="832" x2="948" y2="191" stroke="rgb(57,206,92)" stroke-width="3"/><rect x="389" y="667" width="18" height="21" fill="rgb(13,164,146)" opacity="0.88"/><line x1="32" y1="578" x2="658" y2="437" stroke="rgb(22,139,196)" stroke-width="2"/><line x1="127" y1="162" x2="205" y2="186" stroke="rgb(233,122,249)" stroke-width="2"/><line x1="791" y1="471" x2="594" y2="341" stroke="rgb(55,248,40)" stroke-width="2"/><rect x="209" y="900" width="47" height="25" fill="rgb(235,66,236)" opacity="0.66"/><line x1="54" y1="626" x2="284" y2="104" stroke="rgb(180,29,167)" stroke-width="4"/><path d="M 616 51 L 42 547 L 315 765" stroke="rgb(202,137,43)" fill="none" stroke-width="1"/><circle cx="515" cy="742" r="6" fill="rgb(133,242,106)" opacity="0.89"/><polygon points="646,624 534,51 692,768 796,290 249,846 817,501" fill="rgb(152,161,253)" opacity="0.61"/><polygon points="937,549 50,802 738,25 727,680 968,393 420,383 499,104 940,591" fill="rgb(115,81,207)" opacity="0.63"/><circle cx="583" cy="434" r="48" fill="rgb(27,75,79)" opacity="0.54"/><path d="M 985 974 L 141 741 L 319 770 L 490 414" stroke="rgb(45,12,82)" fill="none" stroke-width="2"/><polygon points="685,818 421,453 564,162" fill="rgb(229,133,37)" opacity="0.49"/><circle cx="982" cy="731" r="23" fill="rgb(135,43,87)" opacity="0.89"/><polygon points="244,500 923,374 57,870 836,60 438,697" fill="rgb(116,168,218)" opacity="0.45"/><line x1="192" y1="509" x2="515" y2="308" stroke="rgb(198,230,59)" stroke-width="4"/><circle cx="181" cy="631" r="30" fill="rgb(35,155,48)" opacity="0.76"/><polygon points="384,962 859,449 642,716 667,619 849,256 780,689 492,13" fill="rgb(86,164,31)" opacity="0.58"/><polygon points="153,416 540,955 190,699 219,68 630,136 948,448" fill="rgb(189,172,70)" opacity="0.77"/><line x1="908" y1="243" x2="336" y2="264" stroke="rgb(22,27,157)" stroke-width="1"/><rect x="364" y="771" width="78" height="20" fill="rgb(112,225,227)" opacity="0.51"/><circle cx="356" cy="284" r="39" fill="rgb(47,117,148)" opacity="0.38"/><polygon points="201,127 741,886 855,819 847,802 348,402 754,844 313,7" fill="rgb(43,165,150)" opacity="0.92"/><rect x="751" y="874" width="63" height="55" fill="rgb(134,76,137)" opacity="0.51"/><circle cx="475" cy="455" r="16" fill="rgb(254,81,135)" opacity="0.67"/><rect x="63" y="340" width="51" height="82" fill="rgb(147,186,6)" opacity="0.61"/><rect x="932" y="266" width="79" height="85" fill="rgb(29,2,78)" opacity="0.50"/><path d="M 37 11 L 884 680 L 302 696 L 606 208" stroke="rgb(57,21,10)" fill="none" stroke-width="1"/><rect x="648" y="497" width="87" height="39" fill="rgb(43,234,174)" opacity="0.44"/><line x1="488" y1="31" x2="152" y2="436" stroke="rgb(238,32,85)" stroke-width="3"/><line x1="519" y1="339" x2="372" y2="122" stroke="rgb(133,8,111)" stroke-width="3"/><polygon points="526,996 894,517 594,204 930,749 515,694 702,580" fill="rgb(117,203,82)" opacity="0.89"/><line x1="352" y1="138" x2="537" y2="369" stroke="rgb(155,33,224)" stroke-width="1"/><circle cx="359" cy="150" r="49" fill="rgb(35,44,196)" opacity="0.56"/><rect x="57" y="667" width="82" height="100" fill="rgb(129,203,73)" opacity="0.56"/><polygon points="473,211 173,602 945,815 257,296 676,244 310,199 112,893 648,558" fill="rgb(56,97,246)" opacity="0.72"/><rect x="426" y="277" width="85" height="63" fill="rgb(193,209,235)" opacity="0.65"/><path d="M 186 627 L 693 623 L 827 378 L 736 158 L 233 62 L 714 238" stroke="rgb(211,27,216)" fill="none" stroke-width="3"/><line x1="6" y1="321" x2="796" y2="117" stroke="rgb(209,158,181)" stroke-width="3"/><polygon points="515,124 46,608 407,672 491,587 993,418" fill="rgb(121,35,213)" opacity="0.66"/><path d="M 228 623 L 813 584 L 929 762 L 974 433 L 597 11 L 963 388" stroke="rgb(237,135,37)" fill="none" stroke-width="1"/><line x1="586" y1="894" x2="344" y2="413" stroke="rgb(17,11,54)" stroke-width="1"/><rect x="114" y="842" width="23" height="87" fill="rgb(241,196,198)" opacity="0.93"/><circle cx="803" cy="194" r="46" fill="rgb(86,219,2)" opacity="0.58"/><rect x="364" y="676" width="49" height="77" fill="rgb(223,58,5)" opacity="0.96"/><line x1="487" y1="853" x2="316" y2="684" stroke="rgb(144,238,9)" stroke-width="1"/><circle cx="71" cy="972" r="21" fill="rgb(160,90,103)" opacity="0.81"/><polygon points="875,681 754,795 558,150 298,965 660,773 641,929" fill="rgb(238,75,148)" opacity="0.97"/><line x1="854" y1="162" x2="205" y2="833" stroke="rgb(95,44,114)" stroke-width="3"/><rect x="488" y="915" width="24" height="88" fill="rgb(131,224,32)" opacity="0.78"/><path d="M 812 347 L 25 973 L 811 213 L 828 715" stroke="rgb(149,238,234)" fill="none" stroke-width="3"/><circle cx="267" cy="996" r="50" fill="rgb(202,248,189)" opacity="0.70"/><line x1="542" y1="80" x2="720" y2="924" stroke="rgb(131,50,97)" stroke-width="3"/><line x1="499" y1="887" x2="503" y2="964" stroke="rgb(160,137,34)" stroke-width="1"/><path d="M 120 941 L 775 665 L 760 837 L 143 893 L 10 116" stroke="rgb(124,234,232)" fill="none" stroke-width="2"/><rect x="870" y="221" width="31" height="99" fill="rgb(32,240,6)" opacity="0.70"/><rect x="455" y="640" width="46" height="55" fill="rgb(175,249,157)" opacity="0.71"/><circle cx="690" cy="322" r="33" fill="rgb(84,98,169)" opacity="0.54"/><polygon points="906,27 156,964 338,156 242,525 444,975" fill="rgb(198,42,184)" opacity="0.39"/><rect x="921" y="474" width="39" height="99" fill="rgb(205,221,17)" opacity="0.33"/><rect x="75" y="566" width="75" height="17" fill="rgb(10,16,160)" opacity="0.45"/><rect x="316" y="734" width="97" height="51" fill="rgb(211,89,238)" opacity="0.90"/><rect x="497" y="909" width="22" height="30" fill="rgb(240,164,72)" opacity="0.58"/><rect x="81" y="278" width="54" height="92" fill="rgb(98,171,194)" opacity="0.47"/><circle cx="13" cy="13" r="18" fill="rgb(189,232,125)" opacity="0.71"/><circle cx="964" cy="271" r="44" fill="rgb(41,69,179)" opacity="0.32"/><rect x="163" y="709" width="19" height="45" fill="rgb(14,222,50)" opacity="0.62"/><path d="M 781 3 L 900 284 L 977 946 L 221 564" stroke="rgb(148,77,251)" fill="none" stroke-width="2"/><path d="M 169 766 L 197 226 L 379 661" stroke="rgb(18,125,98)" fill="none" stroke-width="1"/><circle cx="642" cy="151" r="46" fill="rgb(85,123,11)" opacity="0.57"/><path d="M 906 153 L 512 694 L 290 98" stroke="rgb(236,111,84)" fill="none" stroke-width="2"/><rect x="309" y="568" width="76" height="69" fill="rgb(136,131,38)" opacity="0.91"/><polygon points="503,962 347,982 649,222 685,904 277,139 325,283 289,346 172,673" fill="rgb(60,230,129)" opacity="0.70"/><rect x="93" y="445" width="93" height="100" fill="rgb(225,88,13)" opacity="0.45"/><polygon points="178,678 141,897 568,166 318,529" fill="rgb(194,128,11)" opacity="0.54"/><circle cx="753" cy="874" r="23" fill="rgb(64,52,24)" opacity="0.33"/><rect x="325" y="756" width="23" height="63" fill="rgb(237,101,16)" opacity="0.71"/><line x1="288" y1="336" x2="861" y2="298" stroke="rgb(144,94,173)" stroke-width="2"/><polygon points="541,344 414,237 927,457 954,570 724,172" fill="rgb(224,24,80)" opacity="0.43"/><rect x="385" y="903" width="62" height="87" fill="rgb(114,193,190)" opacity="0.31"/><circle cx="977" cy="773" r="11" fill="rgb(134,172,126)" opacity="0.97"/><rect x="224" y="555" width="97" height="86" fill="rgb(227,224,65)" opacity="0.67"/><polygon points="397,587 295,397 767,350 676,602 392,921 505,944 533,837" fill="rgb(211,128,207)" opacity="0.95"/><circle cx="91" cy="375" r="28" fill="rgb(161,30,212)" opacity="0.55"/><circle cx="223" cy="894" r="9" fill="rgb(220,61,3)" opacity="0.34"/><polygon points="320,410 388,66 857,564 257,692 127,474 864,716 745,177" fill="rgb(26,18,63)" opacity="0.77"/><circle cx="934" cy="563" r="43" fill="rgb(195,28,142)" opacity="0.94"/><line x1="149" y1="463" x2="746" y2="575" stroke="rgb(140,192,135)" stroke-width="3"/><circle cx="446" cy="373" r="14" fill="rgb(15,180,249)" opacity="0.43"/><rect x="801" y="576" width="30" height="13" fill="rgb(241,160,46)" opacity="0.77"/><path d="M 716 680 L 834 517 L 764 274 L 975 175 L 963 838" stroke="rgb(95,194,202)" fill="none" stroke-width="2"/><line x1="120" y1="127" x2="923" y2="391" stroke="rgb(234,161,66)" stroke-width="2"/><circle cx="57" cy="540" r="39" fill="rgb(45,134,155)" opacity="0.52"/><circle cx="225" cy="226" r="40" fill="rgb(95,4,150)" opacity="0.41"/><circle cx="981" cy="27" r="31" fill="rgb(104,2,145)" opacity="0.45"/><line x1="521" y1="68" x2="815" y2="592" stroke="rgb(19,22,107)" stroke-width="4"/><rect x="344" y="619" width="14" height="43" fill="rgb(190,81,178)" opacity="0.50"/><polygon points="528,282 145,325 947,768 210,467 876,619" fill="rgb(134,236,210)" opacity="0.71"/><rect x="93" y="118" width="10" height="56" fill="rgb(123,99,169)" opacity="0.50"/><line x1="217" y1="801" x2="705" y2="200" stroke="rgb(76,109,46)" stroke-width="3"/><line x1="186" y1="719" x2="931" y2="507" stroke="rgb(17,8,145)" stroke-width="3"/><line x1="90" y1="828" x2="479" y2="691" stroke="rgb(125,101,209)" stroke-width="1"/><rect x="847" y="770" width="44" height="50" fill="rgb(44,34,28)" opacity="0.65"/><polygon points="409,176 661,489 914,332 929,792 329,306 43,430 811,434 40,832" fill="rgb(127,111,81)" opacity="0.46"/><rect x="258" y="821" width="52" height="59" fill="rgb(169,180,203)" opacity="0.70"/><rect x="508" y="50" width="71" height="48" fill="rgb(217,116,183)" opacity="0.65"/><polygon points="498,538 479,317 994,539 973,51" fill="rgb(36,191,230)" opacity="0.33"/><line x1="539" y1="677" x2="770" y2="284" stroke="rgb(229,247,106)" stroke-width="4"/><line x1="929" y1="953" x2="232" y2="591" stroke="rgb(171,26,135)" stroke-width="3"/><path d="M 294 852 L 22 104 L 465 811 L 196 549 L 859 939" stroke="rgb(40,189,212)" fill="none" stroke-width="2"/><path d="M 949 107 L 578 403 L 318 701 L 86 769" stroke="rgb(229,50,62)" fill="none" stroke-width="3"/><polygon points="635,618 921,934 46,201 264,221 525,518 350,206 27,25 667,941" fill="rgb(237,174,251)" opacity="0.40"/><circle cx="596" cy="358" r="6" fill="rgb(15,47,207)" opacity="0.71"/><polygon points="516,760 485,483 643,180 706,325 599,299 323,999 761,45 315,689" fill="rgb(147,14,237)" opacity="0.81"/><line x1="716" y1="150" x2="593" y2="767" stroke="rgb(134,205,84)" stroke-width="2"/><path d="M 234 425 L 141 305 L 424 757 L 904 615" stroke="rgb(34,62,44)" fill="none" stroke-width="1"/><polygon points="423,326 789,660 101,487 627,73 140,735 374,681" fill="rgb(21,47,91)" opacity="0.62"/><path d="M 880 108 L 552 316 L 230 870 L 966 238 L 177 953" stroke="rgb(223,243,190)" fill="none" stroke-width="1"/><path d="M 966 752 L 506 561 L 933 501 L 123 631 L 525 262 L 661 25" stroke="rgb(164,199,146)" fill="none" stroke-width="1"/><polygon points="96,507 954,647 287,443 894,619 170,68 26,702" fill="rgb(1,242,43)" opacity="0.56"/><path d="M 120 312 L 841 377 L 320 527 L 190 110 L 899 197" stroke="rgb(52,91,144)" fill="none" stroke-width="3"/><line x1="277" y1="27" x2="302" y2="572" stroke="rgb(228,35,149)" stroke-width="4"/><polygon points="830,277 782,832 54,600 163,332" fill="rgb(77,144,249)" opacity="0.57"/><circle cx="601" cy="948" r="26" fill="rgb(125,140,92)" opacity="0.60"/><path d="M 148 980 L 418 723 L 785 61 L 474 410 L 360 531" stroke="rgb(142,209,58)" fill="none" stroke-width="2"/><polygon points="942,584 75,774 259,849 555,713 802,689 39,608 919,779" fill="rgb(37,69,33)" opacity="0.77"/><path d="M 853 967 L 828 478 L 359 478 L 338 871" stroke="rgb(242,56,121)" fill="none" stroke-width="3"/><rect x="865" y="742" width="56" height="96" fill="rgb(110,152,117)" opacity="0.84"/><polygon points="835,710 907,989 666,274 909,883 724,65 895,834 333,836" fill="rgb(67,236,242)" opacity="0.66"/><line x1="896" y1="220" x2="182" y2="899" stroke="rgb(167,244,2)" stroke-width="5"/><polygon points="520,968 897,648 367,303 141,156" fill="rgb(124,20,55)" opacity="0.76"/><rect x="436" y="719" width="76" height="55" fill="rgb(132,195,137)" opacity="0.49"/><path d="M 136 720 L 391 624 L 942 767" stroke="rgb(82,34,44)" fill="none" stroke-width="1"/><circle cx="230" cy="438" r="50" fill="rgb(194,247,145)" opacity="0.50"/><path d="M 616 618 L 125 774 L 50 297 L 957 149 L 730 952 L 859 85" stroke="rgb(6,47,254)" fill="none" stroke-width="2"/><line x1="682" y1="86" x2="812" y2="419" stroke="rgb(173,96,93)" stroke-width="3"/><rect x="120" y="239" width="85" height="95" fill="rgb(119,44,233)" opacity="0.41"/><circle cx="384" cy="248" r="38" fill="rgb(204,26,173)" opacity="0.73"/><path d="M 699 403 L 720 1 L 822 446 L 702 274" stroke="rgb(48,226,165)" fill="none" stroke-width="1"/><polygon points="382,706 542,310 494,845 291,899 372,397 103,103 956,264" fill="rgb(244,153,39)" opacity="0.91"/><path d="M 18 480 L 396 60 L 802 902 L 456 353 L 288 488" stroke="rgb(35,74,21)" fill="none" stroke-width="1"/><rect x="450" y="517" width="69" height="58" fill="rgb(55,137,103)" opacity="0.99"/><circle cx="17" cy="510" r="48" fill="rgb(9,137,238)" opacity="0.75"/><line x1="536" y1="52" x2="747" y2="273" stroke="rgb(21,184,197)" stroke-width="4"/><path d="M 917 807 L 480 261 L 42 91" stroke="rgb(20,43,225)" fill="none" stroke-width="3"/><rect x="167" y="811" width="10" height="50" fill="rgb(128,201,1)" opacity="0.37"/><circle cx="40" cy="242" r="26" fill="rgb(7,90,237)" opacity="0.96"/><polygon points="929,449 448,455 814,152 789,970" fill="rgb(76,164,183)" opacity="0.90"/><circle cx="1000" cy="801" r="33" fill="rgb(99,35,106)" opacity="0.91"/><line x1="534" y1="510" x2="305" y2="661" stroke="rgb(40,30,127)" stroke-width="4"/><rect x="458" y="391" width="26" height="94" fill="rgb(245,48,105)" opacity="0.97"/><rect x="923" y="3" width="62" height="18" fill="rgb(41,52,119)" opacity="0.44"/><circle cx="522" cy="593" r="38" fill="rgb(77,144,211)" opacity="0.33"/><polygon points="332,388 218,63 217,856" fill="rgb(56,139,38)" opacity="0.55"/><path d="M 38 674 L 166 694 L 653 841 L 892 758 L 456 745 L 646 621" stroke="rgb(124,115,189)" fill="none" stroke-width="2"/><circle cx="366" cy="51" r="26" fill="rgb(255,167,68)" opacity="0.31"/><path d="M 397 261 L 64 788 L 226 661 L 66 113 L 951 112 L 296 194" stroke="rgb(251,236,247)" fill="none" stroke-width="2"/><polygon points="34,730 661,325 775,917 428,38 732,424 261,720" fill="rgb(147,61,162)" opacity="0.45"/><polygon points="450,11 606,192 446,263 570,549 835,529 404,727 95,958" fill="rgb(177,44,200)" opacity="0.93"/><line x1="468" y1="431" x2="72" y2="124" stroke="rgb(118,124,167)" stroke-width="3"/><line x1="787" y1="155" x2="205" y2="366" stroke="rgb(251,206,177)" stroke-width="2"/><rect x="891" y="575" width="76" height="29" fill="rgb(191,157,241)" opacity="0.93"/><line x1="348" y1="847" x2="840" y2="665" stroke="rgb(145,7,33)" stroke-width="5"/><circle cx="716" cy="87" r="49" fill="rgb(82,199,109)" opacity="0.37"/><circle cx="741" cy="608" r="5" fill="rgb(100,149,14)" opacity="0.94"/><polygon points="478,881 95,393 496,454 256,823 267,32 53,367 330,306" fill="rgb(158,71,28)" opacity="0.72"/><path d="M 638 984 L 29 490 L 726 787 L 701 740" stroke="rgb(41,33,196)" fill="none" stroke-width="3"/><polygon points="971,428 310,611 729,293 849,25 574,453 231,521 731,212 28,929" fill="rgb(25,147,212)" opacity="0.95"/><polygon points="574,158 344,356 661,161 796,813 584,258 224,831 644,157" fill="rgb(42,70,112)" opacity="0.42"/><polygon points="224,520 207,552 531,491 666,823" fill="rgb(186,172,183)" opacity="0.43"/><rect x="736" y="55" width="52" height="57" fill="rgb(25,48,226)" opacity="0.58"/><line x1="370" y1="735" x2="74" y2="78" stroke="rgb(241,176,73)" stroke-width="2"/><polygon points="228,24 579,612 687,854" fill="rgb(37,85,219)" opacity="0.95"/><circle cx="472" cy="864" r="25" fill="rgb(63,82,114)" opacity="0.56"/><rect x="328" y="554" width="88" height="78" fill="rgb(234,169,172)" opacity="0.50"/><path d="M 267 671 L 761 94 L 209 659 L 704 166" stroke="rgb(35,231,167)" fill="none" stroke-width="3"/><circle cx="23" cy="143" r="8" fill="rgb(175,146,115)" opacity="0.64"/><circle cx="968" cy="958" r="37" fill="rgb(218,252,24)" opacity="0.59"/><circle cx="942" cy="164" r="38" fill="rgb(55,240,139)" opacity="0.65"/><path d="M 731 808 L 483 543 L 666 202 L 278 723" stroke="rgb(107,88,151)" fill="none" stroke-width="3"/><path d="M 201 697 L 772 5 L 888 357 L 232 347 L 964 798" stroke="rgb(76,127,119)" fill="none" stroke-width="3"/><circle cx="560" cy="882" r="39" fill="rgb(92,183,231)" opacity="0.38"/><circle cx="407" cy="368" r="22" fill="rgb(6,149,22)" opacity="0.56"/><circle cx="333" cy="783" r="19" fill="rgb(148,117,165)" opacity="0.84"/><polygon points="964,574 165,265 373,441 174,461 745,750" fill="rgb(133,98,205)" opacity="0.90"/><path d="M 973 117 L 652 493 L 115 50 L 189 253 L 760 677" stroke="rgb(13,84,231)" fill="none" stroke-width="2"/><circle cx="536" cy="223" r="9" fill="rgb(228,214,101)" opacity="0.30"/><polygon points="356,206 234,502 302,195 746,414 708,155" fill="rgb(2,46,31)" opacity="0.32"/><line x1="359" y1="931" x2="386" y2="361" stroke="rgb(54,17,44)" stroke-width="2"/><line x1="602" y1="67" x2="846" y2="971" stroke="rgb(31,91,127)" stroke-width="2"/><rect x="854" y="546" width="85" height="47" fill="rgb(101,149,82)" opacity="0.96"/><circle cx="890" cy="543" r="21" fill="rgb(30,49,165)" opacity="0.53"/><polygon points="14,648 911,113 33,901 491,943 320,886 642,944" fill="rgb(68,132,128)" opacity="0.91"/><polygon points="757,268 56,418 42,183" fill="rgb(16,238,168)" opacity="0.85"/><path d="M 584 111 L 588 561 L 625 480 L 775 936 L 465 650 L 701 456" stroke="rgb(22,104,114)" fill="none" stroke-width="3"/><path d="M 235 407 L 361 134 L 314 376 L 96 238 L 443 486" stroke="rgb(87,146,44)" fill="none" stroke-width="1"/><line x1="690" y1="351" x2="107" y2="215" stroke="rgb(79,162,201)" stroke-width="4"/><path d="M 372 734 L 706 686 L 184 797 L 24 93" stroke="rgb(94,47,247)" fill="none" stroke-width="3"/><path d="M 493 608 L 993 17 L 488 577 L 107 648" stroke="rgb(145,201,1)" fill="none" stroke-width="1"/><path d="M 418 342 L 758 117 L 600 698 L 316 48" stroke="rgb(232,57,195)" fill="none" stroke-width="2"/><rect x="700" y="17" width="77" height="56" fill="rgb(121,254,53)" opacity="0.46"/><path d="M 333 652 L 755 814 L 232 412" stroke="rgb(4,73,38)" fill="none" stroke-width="2"/><polygon points="681,738 154,750 211,534 969,135 49,20 97,339 145,635 606,447" fill="rgb(171,18,140)" opacity="0.64"/><line x1="85" y1="650" x2="352" y2="341" stroke="rgb(224,115,34)" stroke-width="2"/><polygon points="979,886 149,585 393,730 571,161 84,800" fill="rgb(113,24,212)" opacity="0.78"/><path d="M 422 469 L 609 621 L 663 130" stroke="rgb(175,243,232)" fill="none" stroke-width="3"/><rect x="669" y="278" width="63" height="14" fill="rgb(24,80,49)" opacity="0.48"/><path d="M 668 706 L 491 287 L 781 275" stroke="rgb(124,246,182)" fill="none" stroke-width="3"/><circle cx="378" cy="86" r="47" fill="rgb(49,91,106)" opacity="0.59"/><path d="M 568 30 L 122 98 L 424 309 L 810 476" stroke="rgb(148,107,16)" fill="none" stroke-width="2"/><circle cx="84" cy="662" r="39" fill="rgb(56,213,58)" opacity="0.93"/><circle cx="271" cy="708" r="33" fill="rgb(240,49,153)" opacity="0.92"/><polygon points="374,196 758,46 990,991 804,270 546,380 524,839 652,157" fill="rgb(168,78,72)" opacity="0.51"/><line x1="585" y1="54" x2="193" y2="359" stroke="rgb(234,60,5)" stroke-width="5"/><polygon points="669,415 498,570 921,174 906,739 857,756 284,299 528,323" fill="rgb(36,95,19)" opacity="0.94"/><path d="M 499 771 L 896 829 L 220 116 L 353 954 L 561 875" stroke="rgb(205,238,200)" fill="none" stroke-width="2"/><rect x="879" y="482" width="51" height="26" fill="rgb(158,58,255)" opacity="0.32"/><rect x="612" y="467" width="34" height="72" fill="rgb(236,139,178)" opacity="0.77"/><polygon points="622,9 549,547 344,6" fill="rgb(247,138,7)" opacity="0.83"/><line x1="161" y1="573" x2="561" y2="168" stroke="rgb(18,177,128)" stroke-width="2"/><path d="M 773 203 L 944 617 L 831 90" stroke="rgb(26,214,234)" fill="none" stroke-width="2"/><polygon points="78,559 518,312 67,204 270,338 633,527 890,213 939,466" fill="rgb(212,96,155)" opacity="0.81"/><line x1="121" y1="1" x2="933" y2="587" stroke="rgb(113,219,95)" stroke-width="4"/><rect x="164" y="712" width="51" height="12" fill="rgb(212,1,3)" opacity="0.71"/><rect x="855" y="576" width="71" height="70" fill="rgb(212,71,28)" opacity="0.55"/><rect x="930" y="7" width="36" height="77" fill="rgb(197,228,137)" opacity="0.90"/><line x1="483" y1="498" x2="401" y2="134" stroke="rgb(240,96,144)" stroke-width="2"/><circle cx="710" cy="109" r="21" fill="rgb(9,213,248)" opacity="0.81"/><rect x="355" y="541" width="84" height="10" fill="rgb(145,94,79)" opacity="0.82"/><circle cx="520" cy="45" r="35" fill="rgb(54,22,198)" opacity="0.92"/><rect x="544" y="657" width="37" height="17" fill="rgb(136,167,106)" opacity="0.55"/><path d="M 208 834 L 899 64 L 569 752" stroke="rgb(133,0,80)" fill="none" stroke-width="1"/><path d="M 73 610 L 467 769 L 853 353 L 359 572" stroke="rgb(213,93,84)" fill="none" stroke-width="2"/><line x1="97" y1="349" x2="952" y2="455" stroke="rgb(182,246,246)" stroke-width="1"/><line x1="154" y1="756" x2="852" y2="391" stroke="rgb(65,183,183)" stroke-width="2"/><polygon points="882,886 680,321 935,313 300,101 714,263" fill="rgb(101,203,229)" opacity="0.84"/><rect x="798" y="866" width="51" height="39" fill="rgb(242,224,54)" opacity="0.79"/><path d="M 283 99 L 401 709 L 14 157 L 615 541 L 964 900" stroke="rgb(254,106,134)" fill="none" stroke-width="1"/><circle cx="740" cy="702" r="48" fill="rgb(247,216,37)" opacity="0.81"/><rect x="51" y="460" width="65" height="54" fill="rgb(25,96,247)" opacity="0.47"/><circle cx="526" cy="889" r="18" fill="rgb(158,167,60)" opacity="0.32"/><polygon points="798,85 623,834 564,138 334,778 125,703" fill="rgb(92,46,214)" opacity="0.81"/><polygon points="579,334 158,303 362,288" fill="rgb(137,243,41)" opacity="0.62"/><rect x="104" y="139" width="83" height="84" fill="rgb(177,53,115)" opacity="0.69"/><polygon points="478,784 302,715 311,592 22,496 725,601" fill="rgb(8,243,48)" opacity="0.36"/><circle cx="866" cy="205" r="28" fill="rgb(163,118,49)" opacity="0.87"/><line x1="847" y1="917" x2="842" y2="352" stroke="rgb(206,250,1)" stroke-width="2"/><rect x="552" y="146" width="64" height="63" fill="rgb(35,202,150)" opacity="0.81"/><rect x="841" y="664" width="63" height="57" fill="rgb(9,92,89)" opacity="0.99"/><line x1="383" y1="487" x2="570" y2="475" stroke="rgb(189,3,215)" stroke-width="1"/><circle cx="933" cy="758" r="27" fill="rgb(87,147,214)" opacity="0.86"/><polygon points="377,233 2,53 338,603 279,50 275,13 552,451" fill="rgb(44,38,23)" opacity="0.71"/><line x1="678" y1="549" x2="765" y2="657" stroke="rgb(4,239,100)" stroke-width="5"/><rect x="116" y="680" width="42" height="68" fill="rgb(112,78,109)" opacity="0.55"/><rect x="295" y="198" width="26" height="48" fill="rgb(88,248,65)" opacity="0.62"/><rect x="291" y="414" width="95" height="45" fill="rgb(79,183,213)" opacity="0.82"/><polygon points="993,289 918,755 299,892 665,459 612,74 0,376" fill="rgb(19,121,169)" opacity="0.82"/><polygon points="752,279 106,966 235,485 200,291 105,139 95,13 22,991" fill="rgb(3,8,53)" opacity="0.33"/><polygon points="11,302 43,280 191,459 107,130 662,200" fill="rgb(119,12,214)" opacity="0.85"/><rect x="771" y="919" width="21" height="58" fill="rgb(176,103,143)" opacity="0.78"/><rect x="176" y="511" width="77" height="17" fill="rgb(70,36,79)" opacity="0.74"/><polygon points="790,653 3,349 773,292 553,817 936,483 901,799 639,48" fill="rgb(235,203,144)" opacity="0.49"/><rect x="497" y="442" width="79" height="22" fill="rgb(219,248,8)" opacity="0.76"/><line x1="21" y1="24" x2="836" y2="338" stroke="rgb(83,113,101)" stroke-width="3"/><line x1="949" y1="299" x2="198" y2="322" stroke="rgb(141,114,122)" stroke-width="1"/><line x1="478" y1="716" x2="844" y2="20" stroke="rgb(80,55,235)" stroke-width="3"/><polygon points="177,39 330,790 158,15 391,9" fill="rgb(241,122,205)" opacity="0.95"/><path d="M 343 548 L 282 263 L 334 615 L 527 679" stroke="rgb(204,174,234)" fill="none" stroke-width="1"/><rect x="685" y="657" width="29" height="85" fill="rgb(159,155,217)" opacity="0.52"/><rect x="15" y="272" width="12" height="45" fill="rgb(47,151,1)" opacity="0.55"/><circle cx="65" cy="209" r="41" fill="rgb(15,95,72)" opacity="0.34"/><line x1="342" y1="67" x2="505" y2="63" stroke="rgb(14,168,206)" stroke-width="2"/><circle cx="521" cy="869" r="9" fill="rgb(23,251,101)" opacity="0.66"/><path d="M 54 898 L 929 348 L 153 750 L 894 722 L 578 14" stroke="rgb(102,152,125)" fill="none" stroke-width="3"/><polygon points="381,759 507,852 722,962" fill="rgb(84,143,225)" opacity="0.64"/><circle cx="512" cy="48" r="26" fill="rgb(205,136,83)" opacity="0.31"/><path d="M 494 849 L 130 628 L 813 23" stroke="rgb(127,17,64)" fill="none" stroke-width="3"/><line x1="98" y1="202" x2="864" y2="188" stroke="rgb(84,108,121)" stroke-width="1"/><line x1="544" y1="476" x2="939" y2="209" stroke="rgb(70,89,3)" stroke-width="3"/><line x1="513" y1="913" x2="698" y2="561" stroke="rgb(69,53,175)" stroke-width="5"/><line x1="178" y1="835" x2="300" y2="548" stroke="rgb(232,113,43)" stroke-width="4"/><circle cx="369" cy="446" r="26" fill="rgb(254,168,211)" opacity="0.79"/><path d="M 272 528 L 107 805 L 958 236 L 536 849" stroke="rgb(76,48,148)" fill="none" stroke-width="3"/><circle cx="50" cy="152" r="39" fill="rgb(198,17,158)" opacity="0.73"/><circle cx="40" cy="886" r="31" fill="rgb(229,254,233)" opacity="0.49"/><polygon points="835,39 698,432 636,998 411,386 151,977" fill="rgb(238,241,88)" opacity="0.70"/><path d="M 159 541 L 630 649 L 128 835 L 191 182" stroke="rgb(21,197,72)" fill="none" stroke-width="3"/><line x1="399" y1="23" x2="54" y2="67" stroke="rgb(180,84,130)" stroke-width="3"/><path d="M 230 258 L 512 685 L 588 48" stroke="rgb(123,17,197)" fill="none" stroke-width="1"/><path d="M 858 166 L 285 67 L 854 389" stroke="rgb(90,22,141)" fill="none" stroke-width="3"/><circle cx="933" cy="683" r="31" fill="rgb(38,4,170)" opacity="0.63"/><polygon points="331,639 293,563 192,658 25,219" fill="rgb(197,128,55)" opacity="0.52"/><line x1="707" y1="651" x2="860" y2="390" stroke="rgb(84,194,238)" stroke-width="5"/><line x1="428" y1="92" x2="463" y2="430" stroke="rgb(36,82,83)" stroke-width="2"/><path d="M 603 74 L 463 864 L 279 952 L 94 45 L 163 234 L 918 923" stroke="rgb(28,230,214)" fill="none" stroke-width="1"/><path d="M 960 796 L 271 906 L 437 666 L 404 744 L 677 0 L 352 311" stroke="rgb(36,141,132)" fill="none" stroke-width="2"/><circle cx="397" cy="748" r="20" fill="rgb(27,67,37)" opacity="0.97"/><path d="M 712 121 L 94 624 L 683 465 L 383 313 L 987 932" stroke="rgb(222,152,195)" fill="none" stroke-width="2"/><polygon points="913,492 291,437 821,558" fill="rgb(173,174,60)" opacity="0.58"/><circle cx="144" cy="858" r="36" fill="rgb(71,172,63)" opacity="0.68"/><path d="M 722 653 L 798 41 L 472 161 L 283 337 L 830 86" stroke="rgb(23,125,52)" fill="none" stroke-width="3"/><polygon points="264,236 881,210 517,420 409,533 785,545 522,317" fill="rgb(191,71,6)" opacity="0.87"/><circle cx="226" cy="152" r="45" fill="rgb(82,79,160)" opacity="0.89"/><polygon points="822,764 350,303 950,861 307,283 270,290 311,938 24,794" fill="rgb(7,237,175)" opacity="0.31"/><polygon points="335,551 53,848 651,387 759,879 64,457" fill="rgb(56,238,185)" opacity="0.96"/><path d="M 354 522 L 612 730 L 730 915 L 581 611 L 877 502 L 379 620" stroke="rgb(203,147,164)" fill="none" stroke-width="1"/><line x1="627" y1="495" x2="436" y2="320" stroke="rgb(86,86,199)" stroke-width="5"/><line x1="108" y1="545" x2="660" y2="227" stroke="rgb(30,205,189)" stroke-width="1"/><polygon points="936,915 309,18 946,504 692,293 988,879" fill="rgb(200,195,128)" opacity="0.91"/><circle cx="96" cy="183" r="7" fill="rgb(88,153,163)" opacity="0.89"/><path d="M 651 85 L 213 597 L 788 257 L 136 274" stroke="rgb(125,56,105)" fill="none" stroke-width="1"/><polygon points="238,4 996,726 565,58 338,852 225,457 170,486 753,223" fill="rgb(255,145,167)" opacity="0.50"/><polygon points="102,785 178,786 291,976 495,564" fill="rgb(92,53,232)" opacity="0.56"/><circle cx="206" cy="655" r="34" fill="rgb(79,228,205)" opacity="0.54"/><line x1="514" y1="279" x2="758" y2="289" stroke="rgb(48,57,8)" stroke-width="5"/><rect x="945" y="669" width="77" height="11" fill="rgb(88,182,231)" opacity="0.56"/><path d="M 952 46 L 894 412 L 538 580 L 745 163" stroke="rgb(250,189,72)" fill="none" stroke-width="3"/><polygon points="934,891 7,95 495,530 889,608" fill="rgb(120,77,0)" opacity="0.47"/><circle cx="480" cy="362" r="7" fill="rgb(230,126,123)" opacity="0.93"/><path d="M 269 499 L 591 727 L 427 277 L 813 571 L 484 877 L 142 495" stroke="rgb(228,27,251)" fill="none" stroke-width="3"/><rect x="779" y="870" width="14" height="71" fill="rgb(106,92,51)" opacity="0.61"/><polygon points="731,426 793,974 750,836 630,774 908,144 107,380" fill="rgb(148,44,121)" opacity="0.73"/><circle cx="988" cy="832" r="42" fill="rgb(216,90,8)" opacity="0.82"/><path d="M 12 88 L 104 248 L 454 723 L 168 854 L 0 137 L 846 868" stroke="rgb(214,32,189)" fill="none" stroke-width="1"/><polygon points="829,871 123,436 770,993 548,285" fill="rgb(34,113,197)" opacity="0.38"/><circle cx="239" cy="916" r="8" fill="rgb(145,90,116)" opacity="0.52"/><polygon points="71,995 290,754 808,66 715,476 711,898 133,367" fill="rgb(246,21,17)" opacity="0.32"/><polygon points="322,776 741,444 292,185 290,228" fill="rgb(184,95,198)" opacity="0.63"/><path d="M 659 209 L 69 652 L 462 181 L 551 566 L 679 643" stroke="rgb(187,248,226)" fill="none" stroke-width="3"/><rect x="897" y="355" width="85" height="76" fill="rgb(170,132,32)" opacity="0.56"/><circle cx="808" cy="173" r="20" fill="rgb(226,244,128)" opacity="0.72"/><rect x="316" y="666" width="78" height="18" fill="rgb(62,9,127)" opacity="0.79"/><line x1="519" y1="737" x2="564" y2="627" stroke="rgb(186,57,80)" stroke-width="5"/><line x1="467" y1="161" x2="476" y2="519" stroke="rgb(7,136,252)" stroke-width="3"/><rect x="852" y="816" width="100" height="75" fill="rgb(141,89,99)" opacity="0.94"/><path d="M 248 918 L 263 2 L 466 46" stroke="rgb(208,139,136)" fill="none" stroke-width="2"/><path d="M 926 153 L 582 543 L 550 552 L 733 261 L 595 560" stroke="rgb(204,241,188)" fill="none" stroke-width="2"/><path d="M 397 25 L 490 350 L 259 66 L 139 560 L 63 719 L 628 394" stroke="rgb(241,205,116)" fill="none" stroke-width="1"/><line x1="240" y1="969" x2="886" y2="829" stroke="rgb(173,231,189)" stroke-width="1"/><path d="M 674 167 L 346 135 L 989 969 L 655 276" stroke="rgb(116,94,97)" fill="none" stroke-width="2"/><rect x="650" y="666" width="68" height="28" fill="rgb(221,153,142)" opacity="0.48"/><rect x="266" y="841" width="10" height="38" fill="rgb(61,15,158)" opacity="0.82"/><polygon points="4,548 988,654 171,745" fill="rgb(65,149,164)" opacity="0.68"/><line x1="346" y1="12" x2="433" y2="31" stroke="rgb(205,114,158)" stroke-width="1"/><circle cx="577" cy="340" r="27" fill="rgb(134,100,148)" opacity="0.68"/><circle cx="762" cy="756" r="25" fill="rgb(238,133,55)" opacity="0.98"/><circle cx="860" cy="635" r="20" fill="rgb(48,238,129)" opacity="0.85"/><line x1="637" y1="493" x2="306" y2="80" stroke="rgb(19,2,64)" stroke-width="4"/><path d="M 835 789 L 478 611 L 781 720 L 57 929 L 163 103" stroke="rgb(237,254,252)" fill="none" stroke-width="2"/><circle cx="248" cy="520" r="45" fill="rgb(117,181,196)" opacity="0.46"/><rect x="683" y="642" width="37" height="49" fill="rgb(176,105,219)" opacity="0.87"/><path d="M 84 744 L 235 256 L 726 699 L 775 680 L 791 838" stroke="rgb(40,46,155)" fill="none" stroke-width="1"/><line x1="856" y1="93" x2="490" y2="911" stroke="rgb(127,155,196)" stroke-width="3"/><line x1="740" y1="997" x2="59" y2="774" stroke="rgb(107,58,252)" stroke-width="4"/><circle cx="321" cy="688" r="12" fill="rgb(210,124,236)" opacity="0.64"/><circle cx="950" cy="610" r="26" fill="rgb(4,142,34)" opacity="0.86"/><path d="M 86 361 L 94 30 L 710 158" stroke="rgb(232,250,154)" fill="none" stroke-width="3"/><circle cx="714" cy="265" r="50" fill="rgb(48,191,42)" opacity="0.52"/><rect x="517" y="770" width="49" height="76" fill="rgb(59,137,237)" opacity="0.58"/><path d="M 333 210 L 233 947 L 610 513" stroke="rgb(200,35,191)" fill="none" stroke-width="1"/><polygon points="401,728 198,434 15,796 874,127 851,172 112,703 756,629" fill="rgb(19,113,237)" opacity="0.50"/><rect x="556" y="176" width="75" height="71" fill="rgb(225,42,75)" opacity="0.69"/><line x1="901" y1="613" x2="899" y2="628" stroke="rgb(91,162,206)" stroke-width="1"/><path d="M 125 304 L 328 780 L 847 1 L 43 619 L 946 639" stroke="rgb(168,133,253)" fill="none" stroke-width="3"/><rect x="239" y="20" width="68" height="13" fill="rgb(237,132,72)" opacity="0.37"/><polygon points="827,336 184,807 780,191 994,967 296,443 952,430" fill="rgb(126,188,221)" opacity="0.37"/><circle cx="754" cy="829" r="35" fill="rgb(148,114,236)" opacity="0.80"/><path d="M 659 690 L 398 786 L 2 355 L 207 605 L 153 524 L 846 534" stroke="rgb(123,49,108)" fill="none" stroke-width="2"/><polygon points="580,453 649,701 272,722 414,966" fill="rgb(1,80,207)" opacity="0.97"/><polygon points="989,903 519,359 672,967 459,715 348,91 13,668 167,504" fill="rgb(89,7,186)" opacity="0.90"/><rect x="643" y="277" width="69" height="72" fill="rgb(136,6,54)" opacity="0.50"/><circle cx="286" cy="459" r="31" fill="rgb(52,57,250)" opacity="0.96"/><circle cx="357" cy="772" r="27" fill="rgb(224,228,204)" opacity="0.66"/><line x1="124" y1="946" x2="614" y2="252" stroke="rgb(249,184,211)" stroke-width="4"/><polygon points="491,346 843,106 527,577" fill="rgb(13,119,79)" opacity="0.90"/><rect x="16" y="544" width="20" height="29" fill="rgb(244,20,135)" opacity="0.91"/><polygon points="802,822 325,731 200,732" fill="rgb(115,232,116)" opacity="0.86"/><polygon points="225,584 828,596 925,910" fill="rgb(214,154,171)" opacity="0.81"/><rect x="317" y="479" width="59" height="17" fill="rgb(52,41,13)" opacity="0.87"/><polygon points="185,478 300,530 217,170 163,983 187,630" fill="rgb(59,170,58)" opacity="0.78"/><rect x="218" y="677" width="37" height="61" fill="rgb(121,98,199)" opacity="0.68"/><circle cx="364" cy="255" r="8" fill="rgb(123,45,74)" opacity="0.63"/><path d="M 176 917 L 70 158 L 558 443 L 230 193 L 763 147" stroke="rgb(115,228,247)" fill="none" stroke-width="2"/><polygon points="73,763 470,262 854,81 695,218 217,882 689,33" fill="rgb(17,104,4)" opacity="0.82"/><line x1="232" y1="684" x2="447" y2="49" stroke="rgb(196,174,232)" stroke-width="3"/><path d="M 366 339 L 718 951 L 583 766 L 977 65 L 795 737 L 596 359" stroke="rgb(223,182,87)" fill="none" stroke-width="1"/><rect x="684" y="705" width="11" height="25" fill="rgb(215,33,238)" opacity="0.52"/><line x1="266" y1="220" x2="531" y2="686" stroke="rgb(46,49,126)" stroke-width="1"/><circle cx="297" cy="851" r="5" fill="rgb(220,80,49)" opacity="0.62"/><circle cx="594" cy="432" r="50" fill="rgb(227,153,10)" opacity="0.92"/><rect x="6" y="791" width="12" height="10" fill="rgb(63,73,129)" opacity="0.92"/><rect x="916" y="35" width="80" height="56" fill="rgb(66,92,60)" opacity="0.53"/><line x1="965" y1="916" x2="189" y2="661" stroke="rgb(97,104,54)" stroke-width="1"/><line x1="904" y1="823" x2="947" y2="335" stroke="rgb(192,81,28)" stroke-width="2"/><path d="M 271 431 L 912 881 L 961 330 L 104 561" stroke="rgb(189,3,240)" fill="none" stroke-width="1"/><path d="M 621 60 L 893 159 L 630 132 L 288 153" stroke="rgb(161,154,45)" fill="none" stroke-width="2"/><line x1="595" y1="514" x2="507" y2="51" stroke="rgb(132,71,162)" stroke-width="3"/><line x1="363" y1="504" x2="356" y2="10" stroke="rgb(164,61,164)" stroke-width="5"/><circle cx="486" cy="368" r="25" fill="rgb(31,14,29)" opacity="0.41"/><circle cx="333" cy="275" r="28" fill="rgb(65,80,106)" opacity="0.92"/><rect x="17" y="172" width="47" height="11" fill="rgb(232,177,93)" opacity="0.53"/><line x1="296" y1="854" x2="673" y2="175" stroke="rgb(163,40,67)" stroke-width="5"/><path d="M 370 689 L 776 467 L 763 278 L 84 999 L 276 957" stroke="rgb(6,202,187)" fill="none" stroke-width="3"/><path d="M 933 201 L 291 889 L 301 885 L 87 427 L 563 746" stroke="rgb(174,155,177)" fill="none" stroke-width="2"/><polygon points="129,650 487,917 338,113 734,424 553,276" fill="rgb(109,73,243)" opacity="0.91"/><circle cx="842" cy="321" r="39" fill="rgb(187,67,131)" opacity="0.74"/><circle cx="679" cy="267" r="29" fill="rgb(169,88,126)" opacity="0.69"/><circle cx="882" cy="364" r="43" fill="rgb(138,103,31)" opacity="0.47"/><rect x="653" y="83" width="57" height="23" fill="rgb(221,204,251)" opacity="0.51"/><polygon points="248,644 952,405 737,119 225,192 538,511 246,406 874,183 865,965" fill="rgb(177,22,52)" opacity="0.67"/><rect x="89" y="58" width="19" height="69" fill="rgb(130,2,19)" opacity="0.74"/><polygon points="562,591 971,601 962,968 298,121 247,666 947,42" fill="rgb(96,24,31)" opacity="0.75"/><circle cx="873" cy="582" r="16" fill="rgb(221,134,17)" opacity="0.95"/><line x1="717" y1="910" x2="179" y2="44" stroke="rgb(40,185,174)" stroke-width="2"/><circle cx="8" cy="637" r="6" fill="rgb(248,218,188)" opacity="0.96"/><path d="M 553 709 L 227 324 L 509 94 L 591 259 L 830 309 L 473 58" stroke="rgb(220,137,42)" fill="none" stroke-width="1"/><line x1="633" y1="911" x2="143" y2="699" stroke="rgb(142,204,187)" stroke-width="4"/><rect x="895" y="594" width="63" height="70" fill="rgb(165,39,50)" opacity="0.85"/><rect x="842" y="431" width="97" height="49" fill="rgb(189,6,81)" opacity="0.35"/><polygon points="532,430 955,1 734,131 486,57 894,306 32,221" fill="rgb(171,59,208)" opacity="0.92"/><polygon points="269,738 21,521 21,36 710,698 939,351 386,126" fill="rgb(253,68,5)" opacity="0.37"/><polygon points="416,376 0,461 181,541 228,613 136,393" fill="rgb(219,84,53)" opacity="0.66"/><circle cx="430" cy="136" r="34" fill="rgb(43,192,141)" opacity="0.50"/><line x1="233" y1="275" x2="589" y2="441" stroke="rgb(98,248,109)" stroke-width="2"/><rect x="486" y="79" width="15" height="46" fill="rgb(168,149,73)" opacity="0.97"/><circle cx="455" cy="977" r="26" fill="rgb(157,70,14)" opacity="0.64"/><circle cx="408" cy="13" r="42" fill="rgb(140,178,44)" opacity="0.81"/><line x1="743" y1="76" x2="412" y2="911" stroke="rgb(239,50,52)" stroke-width="1"/><rect x="12" y="508" width="18" height="26" fill="rgb(102,37,89)" opacity="0.87"/><rect x="327" y="44" width="19" height="25" fill="rgb(160,74,200)" opacity="0.86"/><path d="M 257 800 L 652 601 L 300 150" stroke="rgb(8,140,190)" fill="none" stroke-width="1"/><polygon points="802,24 431,331 310,381 672,518 634,706 303,661 658,582 662,967" fill="rgb(238,113,105)" opacity="0.90"/><path d="M 501 313 L 212 509 L 707 799 L 976 262" stroke="rgb(167,243,195)" fill="none" stroke-width="1"/><path d="M 936 588 L 779 655 L 25 891 L 972 119 L 69 872" stroke="rgb(251,30,34)" fill="none" stroke-width="2"/><polygon points="830,889 569,182 509,726 77,222 71,966 651,838 541,808" fill="rgb(173,179,121)" opacity="0.85"/><rect x="699" y="118" width="36" height="85" fill="rgb(183,229,12)" opacity="0.45"/><path d="M 267 15 L 664 443 L 295 443" stroke="rgb(200,182,142)" fill="none" stroke-width="1"/><line x1="588" y1="472" x2="970" y2="1" stroke="rgb(22,3,130)" stroke-width="5"/><path d="M 605 428 L 340 289 L 758 625" stroke="rgb(69,246,201)" fill="none" stroke-width="3"/><path d="M 4 868 L 629 168 L 22 425 L 344 155" stroke="rgb(35,171,104)" fill="none" stroke-width="2"/><polygon points="492,646 298,159 497,693 999,302 14,97 52,447" fill="rgb(227,87,84)" opacity="0.40"/><circle cx="98" cy="953" r="24" fill="rgb(249,26,70)" opacity="0.33"/><polygon points="892,71 431,376 899,540 608,244" fill="rgb(53,9,110)" opacity="0.84"/><path d="M 876 267 L 456 243 L 449 261 L 763 629" stroke="rgb(59,116,61)" fill="none" stroke-width="3"/><polygon points="647,597 499,50 342,1 56,224 509,651 438,715" fill="rgb(72,56,47)" opacity="0.93"/><circle cx="293" cy="316" r="23" fill="rgb(11,114,98)" opacity="0.81"/><line x1="860" y1="378" x2="567" y2="949" stroke="rgb(149,220,54)" stroke-width="1"/><rect x="12" y="140" width="42" height="88" fill="rgb(190,15,34)" opacity="0.52"/><polygon points="631,106 493,781 396,754 446,863 549,374" fill="rgb(144,23,106)" opacity="0.61"/><rect x="748" y="607" width="95" height="13" fill="rgb(126,195,153)" opacity="0.65"/><polygon points="617,490 92,168 799,388 847,276 129,819" fill="rgb(189,43,126)" opacity="0.41"/><polygon points="248,476 39,868 915,923 936,365 663,997" fill="rgb(21,136,12)" opacity="0.64"/><line x1="311" y1="18" x2="500" y2="35" stroke="rgb(95,55,240)" stroke-width="4"/><path d="M 809 589 L 315 951 L 557 555 L 707 411 L 17 820 L 273 186" stroke="rgb(40,179,63)" fill="none" stroke-width="3"/><line x1="622" y1="272" x2="55" y2="541" stroke="rgb(33,207,62)" stroke-width="2"/><rect x="99" y="696" width="14" height="74" fill="rgb(99,75,225)" opacity="0.61"/><path d="M 597 192 L 200 794 L 600 927 L 564 403 L 389 178" stroke="rgb(109,86,71)" fill="none" stroke-width="1"/><polygon points="22,204 915,998 867,84 726,232 386,603 868,357 977,449 853,411" fill="rgb(28,217,247)" opacity="0.36"/><line x1="253" y1="813" x2="56" y2="976" stroke="rgb(231,5,102)" stroke-width="2"/><line x1="915" y1="312" x2="558" y2="265" stroke="rgb(1,255,166)" stroke-width="3"/><line x1="599" y1="834" x2="426" y2="646" stroke="rgb(13,254,213)" stroke-width="5"/><rect x="878" y="89" width="28" height="96" fill="rgb(95,84,216)" opacity="0.92"/><rect x="168" y="242" width="57" height="20" fill="rgb(109,31,148)" opacity="0.94"/><path d="M 837 396 L 995 415 L 242 919 L 898 617 L 42 263 L 150 728" stroke="rgb(228,200,144)" fill="none" stroke-width="3"/><rect x="238" y="241" width="72" height="37" fill="rgb(253,111,248)" opacity="0.97"/>
</svg>